<svg width="48" height="46" viewBox="0 0 48 46" fill="none" xmlns="http://www.w3.org/2000/svg">
<rect x="47" y="44.6724" width="46" height="43.6724" rx="5" transform="rotate(180 47 44.6724)" stroke="#6B6B82" stroke-width="2"/>
<rect x="2.56006" y="41.553" width="42.88" height="2.82353" rx="1.41176" fill="#FF620A"/>
<circle cx="24" cy="23" r="11" stroke="#FF620A" stroke-width="2" stroke-linecap="square" stroke-dasharray="19 19"/>
<path d="M21.3363 29.1745C19.9814 29.6018 18.7072 28.535 18.2561 28.1583C16.8024 26.9414 16.3774 25.0567 16.6045 23.6663C16.6581 23.3341 16.8321 22.3211 17.4432 22.0929C18.6691 21.6409 19.0647 22.8645 19.8076 23.2253C20.6139 23.6163 21.1549 23.5379 21.6267 23.4636C21.6732 23.8573 21.8365 24.2278 22.0953 24.5273C22.3542 24.8267 22.6968 25.0413 23.0788 25.1434C23.1421 25.1603 23.2031 25.1733 23.2648 25.1837C23.2852 26.7357 22.5669 28.7884 21.3363 29.1745Z" stroke="#FF620A" stroke-linecap="round" stroke-linejoin="round"/>
<path d="M27.7154 18.7845C27.3697 20.0493 26.1457 19.6631 25.4189 20.0576C24.6739 20.4638 24.4125 20.9218 24.202 21.3321C24.1729 21.3212 24.1395 21.3123 24.1067 21.3035C23.7487 21.2069 23.3705 21.2138 23.0159 21.3234C22.6612 21.4329 22.3445 21.6406 22.1022 21.9225C20.7401 21.1236 19.2701 19.1719 19.7002 17.8552C20.1443 16.4999 21.7518 16.0822 22.3183 15.9324C24.1522 15.4521 25.9325 16.1979 26.9314 17.1881C27.1661 17.4226 27.8875 18.1537 27.7154 18.7845Z" stroke="#FF620A" stroke-linecap="round" stroke-linejoin="round"/>
<path d="M27.4019 29.1994C27.0873 29.313 26.1162 29.6454 25.6271 29.2165C24.6401 28.3561 25.524 27.4202 25.4838 26.5928C25.4378 25.6447 25.0757 25.2106 24.7717 24.815C25.1003 24.5719 25.3458 24.2327 25.4742 23.8441C25.6027 23.4555 25.6077 23.0367 25.4887 22.6455C26.8332 21.8591 29.0212 21.4798 29.9605 22.386C30.984 23.3761 30.6594 25.0091 30.5433 25.5872C30.174 27.4478 28.7285 28.732 27.4019 29.1994Z" stroke="#FF620A" stroke-linecap="round" stroke-linejoin="round"/>
<path d="M25.5067 23.7353C25.3775 24.2116 25.0768 24.6232 24.6627 24.8904C24.2486 25.1577 23.7506 25.2617 23.265 25.1822C23.2033 25.1718 23.1423 25.1589 23.0791 25.1419C22.697 25.0401 22.3544 24.8257 22.0953 24.5265C21.8363 24.2273 21.6728 23.857 21.626 23.4634C21.5922 23.1876 21.617 22.9077 21.6987 22.6421C21.7804 22.3764 21.9172 22.131 22.1001 21.9219C22.3427 21.6397 22.6598 21.4319 23.0149 21.3225C23.37 21.213 23.7486 21.2065 24.1069 21.3035C24.1397 21.3123 24.1731 21.3212 24.2022 21.3321C24.6852 21.4887 25.0896 21.8252 25.3322 22.2721C25.5748 22.719 25.6371 23.2425 25.5062 23.7346L25.5067 23.7353Z" stroke="#FF620A" stroke-linecap="round" stroke-linejoin="round"/>
</svg>
