<svg width="48" height="48" viewBox="0 0 48 48" fill="none" xmlns="http://www.w3.org/2000/svg">
<rect x="47" y="47" width="46" height="46" rx="5" transform="rotate(180 47 47)" stroke="#6B6B82" stroke-width="2"/>
<circle cx="24" cy="24" r="11" stroke="#FF620A" stroke-width="2" stroke-linecap="square" stroke-dasharray="19 19"/>
<path d="M21.9096 29.7478C20.5546 30.175 19.2804 29.1083 18.8293 28.7315C17.3757 27.5147 16.9506 25.6299 17.1778 24.2395C17.2313 23.9073 17.4053 22.8943 18.0164 22.6661C19.2423 22.2141 19.6379 23.4377 20.3808 23.7985C21.1872 24.1896 21.7282 24.1111 22.2 24.0369C22.2465 24.4306 22.4097 24.8011 22.6686 25.1005C22.9274 25.4 23.27 25.6146 23.6521 25.7166C23.7154 25.7336 23.7764 25.7466 23.838 25.7569C23.8585 27.309 23.1401 29.3617 21.9096 29.7478Z" stroke="#FF620A" stroke-linecap="round" stroke-linejoin="round"/>
<path d="M28.2886 19.3577C27.943 20.6226 26.7189 20.2364 25.9921 20.6309C25.2472 21.0371 24.9857 21.495 24.7753 21.9053C24.7461 21.8944 24.7128 21.8855 24.68 21.8767C24.3219 21.7802 23.9438 21.7871 23.5891 21.8966C23.2345 22.0061 22.9178 22.2138 22.6755 22.4958C21.3133 21.6969 19.8433 19.7451 20.2734 18.4284C20.7175 17.0732 22.325 16.6554 22.8916 16.5057C24.7254 16.0254 26.5057 16.7712 27.5046 17.7614C27.7394 17.9959 28.4607 18.7269 28.2886 19.3577Z" stroke="#FF620A" stroke-linecap="round" stroke-linejoin="round"/>
<path d="M27.9752 29.7726C27.6606 29.8863 26.6894 30.2187 26.2003 29.7898C25.2134 28.9293 26.0972 27.9934 26.0571 27.166C26.0111 26.2179 25.6489 25.7838 25.3449 25.3882C25.6736 25.1452 25.9191 24.8059 26.0475 24.4173C26.1759 24.0287 26.1809 23.6099 26.0619 23.2187C27.4064 22.4323 29.5945 22.0531 30.5338 22.9593C31.5572 23.9493 31.2327 25.5823 31.1166 26.1604C30.7473 28.0211 29.3017 29.3053 27.9752 29.7726Z" stroke="#FF620A" stroke-linecap="round" stroke-linejoin="round"/>
<path d="M26.0799 24.3086C25.9507 24.7848 25.65 25.1964 25.2359 25.4637C24.8219 25.731 24.3239 25.8349 23.8383 25.7555C23.7766 25.7451 23.7156 25.7321 23.6523 25.7151C23.2703 25.6133 22.9276 25.399 22.6686 25.0998C22.4096 24.8006 22.2461 24.4303 22.1992 24.0366C22.1654 23.7609 22.1902 23.481 22.2719 23.2153C22.3536 22.9497 22.4904 22.7042 22.6734 22.4952C22.9159 22.213 23.2331 22.0051 23.5882 21.8957C23.9433 21.7863 24.3218 21.7797 24.6802 21.8768C24.713 21.8855 24.7463 21.8945 24.7755 21.9054C25.2585 22.062 25.6629 22.3984 25.9055 22.8453C26.1481 23.2923 26.2103 23.8157 26.0795 24.3078L26.0799 24.3086Z" stroke="#FF620A" stroke-linecap="round" stroke-linejoin="round"/>
</svg>
