<svg width="113" height="24" viewBox="0 0 113 24" fill="none" xmlns="http://www.w3.org/2000/svg">
<path d="M0.675 24V0H11.35C12.8083 0 14.0583 0.525 15.1 1.575C16.15 2.625 16.675 3.875 16.675 5.325V6.675C16.675 8.23333 16.2292 9.45833 15.3375 10.35C14.4542 11.2417 13.125 11.7917 11.35 12C13.125 12 14.4542 12.5375 15.3375 13.6125C16.2292 14.6792 16.675 15.9167 16.675 17.325V18.675C16.675 20.1167 16.1458 21.3667 15.0875 22.425C14.0375 23.475 12.7917 24 11.35 24H0.675ZM6 10.675H8.675C9.4 10.675 10.025 10.4125 10.55 9.8875C11.0833 9.35417 11.35 8.725 11.35 8V5.325C11.35 4.6 11.0833 3.97917 10.55 3.4625C10.025 2.9375 9.4 2.675 8.675 2.675H6V10.675ZM6 21.325H8.675C9.4 21.325 10.025 21.0625 10.55 20.5375C11.0833 20.0125 11.35 19.3917 11.35 18.675V16C11.35 14.2167 10.4583 13.325 8.675 13.325H6V21.325ZM32.6625 13.325V10.675C32.6625 9.94167 32.3958 9.3125 31.8625 8.7875C31.3375 8.2625 30.7125 8 29.9875 8H27.3125C25.7375 8 24.8542 8.89167 24.6625 10.675H21.9875C22.3958 7.10833 24.1708 5.325 27.3125 5.325H32.6625C34.1208 5.325 35.3708 5.85417 36.4125 6.9125C37.4625 7.9625 37.9875 9.21667 37.9875 10.675V24H32.6625V21.325C32.4542 23.1083 31.5625 24 29.9875 24H27.3125C25.8542 24 24.6 23.4792 23.55 22.4375C22.5083 21.3875 21.9875 20.1333 21.9875 18.675V18.65C21.9875 17.1917 22.5125 15.9417 23.5625 14.9C24.6125 13.85 25.8625 13.325 27.3125 13.325H32.6625ZM32.6625 16H29.9875C29.2542 16 28.625 16.2625 28.1 16.7875C27.575 17.3042 27.3125 17.925 27.3125 18.65V18.675C27.3125 19.3917 27.5708 20.0125 28.0875 20.5375C28.6125 21.0625 29.2458 21.325 29.9875 21.325C30.7292 21.325 31.3583 21.0625 31.875 20.5375C32.4 20.0125 32.6625 19.3917 32.6625 18.675V16ZM43.3 5.325H48.625V21.325H51.3C52.0417 21.325 52.6708 21.0625 53.1875 20.5375C53.7125 20.0125 53.975 19.3917 53.975 18.675V5.325H59.3V21.325H61.975C62.7 21.325 63.3208 21.0625 63.8375 20.5375C64.3625 20.0125 64.625 19.3917 64.625 18.675V5.325H69.975V14.8875C69.975 17.3708 69.0792 19.5125 67.2875 21.3125C65.5042 23.1042 63.3625 24 60.8625 24H53.975V23.15C52.95 23.7167 51.6875 24 50.1875 24H43.3V5.325ZM85.975 13.325V10.675C85.975 9.94167 85.7083 9.3125 85.175 8.7875C84.65 8.2625 84.025 8 83.3 8H80.625C79.05 8 78.1667 8.89167 77.975 10.675H75.3C75.7083 7.10833 77.4833 5.325 80.625 5.325H85.975C87.4333 5.325 88.6833 5.85417 89.725 6.9125C90.775 7.9625 91.3 9.21667 91.3 10.675V24H85.975V21.325C85.7667 23.1083 84.875 24 83.3 24H80.625C79.1667 24 77.9125 23.4792 76.8625 22.4375C75.8208 21.3875 75.3 20.1333 75.3 18.675V18.65C75.3 17.1917 75.825 15.9417 76.875 14.9C77.925 13.85 79.175 13.325 80.625 13.325H85.975ZM85.975 16H83.3C82.5667 16 81.9375 16.2625 81.4125 16.7875C80.8875 17.3042 80.625 17.925 80.625 18.65V18.675C80.625 19.3917 80.8833 20.0125 81.4 20.5375C81.925 21.0625 82.5583 21.325 83.3 21.325C84.0417 21.325 84.6708 21.0625 85.1875 20.5375C85.7125 20.0125 85.975 19.3917 85.975 18.675V16ZM96.6125 24V5.325H101.938V8C102.046 7.1 102.321 6.42917 102.762 5.9875C103.212 5.54583 103.829 5.325 104.613 5.325H107.288C108.746 5.325 109.996 5.85417 111.038 6.9125C112.088 7.9625 112.613 9.21667 112.613 10.675V24H107.288V10.675C107.288 9.94167 107.021 9.3125 106.488 8.7875C105.962 8.2625 105.337 8 104.613 8C103.879 8 103.25 8.2625 102.725 8.7875C102.2 9.3125 101.938 9.94167 101.938 10.675V24H96.6125Z" fill="white"/>
</svg>
