<svg width="36" height="29" viewBox="0 0 36 29" fill="none" xmlns="http://www.w3.org/2000/svg">
<g clip-path="url(#clip0_53_4571)">
<path d="M8.85999 27.1832C8.53968 27.314 8.17445 27.1557 8.051 26.8325C7.9315 26.5196 8.08367 26.1685 8.39371 26.0419L15.0555 23.3199C16.9451 22.5478 19.0637 22.556 20.9473 23.3426L27.3928 26.0345C27.7053 26.165 27.8553 26.5221 27.7297 26.8366C27.6013 27.1582 27.2343 27.3123 26.9147 27.1788L20.7424 24.5992C18.9836 23.8642 17.0052 23.8562 15.2405 24.577L8.85999 27.1832Z" fill="#9898FF"/>
<g clip-path="url(#clip1_53_4571)">
<path d="M17.1746 6.61739C17.1045 6.57573 17.0249 6.5538 16.9439 6.5538C16.8629 6.5538 16.7833 6.57573 16.7132 6.61739C16.6655 6.67339 16.6392 6.74533 16.6392 6.8198C16.6392 6.89427 16.6655 6.9662 16.7132 7.0222C18.0703 9.4511 18.4232 12.899 16.4825 14.7835C15.7376 14.1613 15.1391 13.3739 14.7318 12.4802C14.0092 12.8916 13.4113 13.5005 13.0041 14.2395C12.5969 14.9786 12.3964 15.819 12.4246 16.668C12.4644 17.4042 12.6455 18.125 12.9575 18.7887C13.2695 19.4525 13.7062 20.0462 14.2424 20.5355C14.7787 21.0248 15.4038 21.3999 16.0818 21.6394C16.7598 21.8789 17.4771 21.9778 18.1925 21.9306C18.9171 22.0021 19.6482 21.9182 20.3397 21.6844C21.0312 21.4506 21.668 21.0718 22.21 20.5721C22.752 20.0723 23.1874 19.4624 23.4887 18.7808C23.7899 18.0992 23.9505 17.3608 23.9603 16.6122C24.1096 13.0805 21.6939 8.66939 17.1746 6.61739Z" stroke="#9898FF" stroke-linecap="round" stroke-linejoin="round"/>
<path d="M21.0696 16.6122C21.0696 16.9231 21.0098 17.231 20.8937 17.5182C20.7776 17.8053 20.6074 18.066 20.393 18.2852C20.1786 18.5045 19.9242 18.678 19.6443 18.7957C19.3645 18.9134 19.0648 18.9731 18.7625 18.9713" stroke="#9898FF" stroke-linecap="round" stroke-linejoin="round"/>
</g>
</g>
<rect x="1.49609" y="3.94046" width="33.5" height="23.5" rx="5.25" stroke="#9898FF" stroke-width="1.5"/>
<defs>
<clipPath id="clip0_53_4571">
<rect width="34.4" height="26.4446" fill="white" transform="translate(0.746094)"/>
</clipPath>
<clipPath id="clip1_53_4571">
<rect width="19" height="19.5429" fill="white" transform="translate(11.7461 3.08572)"/>
</clipPath>
</defs>
</svg>
