<svg width="224" height="65" viewBox="0 0 224 65" fill="none" xmlns="http://www.w3.org/2000/svg">
<path d="M218.41 4H6.40991V62H218.41V4Z" fill="#6D6D6D"/>
<path d="M214.41 7H11.4099V59H214.41V7Z" fill="#4D4D4D"/>
<path d="M208 11H19C17.8954 11 17 11.8954 17 13V57C17 58.1046 17.8954 59 19 59H208C209.105 59 210 58.1046 210 57V13C210 11.8954 209.105 11 208 11Z" fill="#363640"/>
<path d="M221 61H2C0.895431 61 0 61.8954 0 63C0 64.1046 0.895426 65 2 65H221C222.105 65 223 64.1046 223 63C223 61.8954 222.105 61 221 61Z" fill="#4D4D4D"/>
<path d="M224 5V3.64C223.992 2.67451 223.391 1.75021 222.328 1.06843C221.265 0.386648 219.826 0.0026236 218.325 0L5.67541 0C4.17414 0.0026236 2.7353 0.386648 1.67228 1.06843C0.609266 1.75021 0.00819814 2.67451 0 3.64V5H224Z" fill="#939393"/>
<path d="M0 2H223C222.489 1.39253 221.794 0.892454 220.977 0.543725C220.16 0.194996 219.246 0.00828576 218.315 2.79711e-06H4.74734C3.80557 -0.000823863 2.87838 0.181596 2.04952 0.530781C1.22067 0.879965 0.516286 1.38491 0 2Z" fill="#AFAFAF"/>
</svg>
