<svg width="186" height="33" viewBox="0 0 186 33" fill="none" xmlns="http://www.w3.org/2000/svg">
<path d="M3.49004 32.62L3.68004 32.79H9.68004C10.6314 31.4708 11.3828 30.0185 11.91 28.48C12.91 25.38 11.73 22.48 10.18 21.41C10.68 23.9 10.63 25.93 8.92004 27.41C9.56004 24.68 9.18004 23.13 6.99004 20.19C5.04004 17.57 4.48004 16.77 4.21004 14.96C2.84004 17.02 3.88004 19.77 4.43004 20.78C5.43004 22.65 5.34004 25.54 4.15004 26.39C3.15004 27.09 1.91004 26.56 0.700042 23.12C-1.50996 27.79 3.49004 32.62 3.49004 32.62Z" fill="#4ADE80"/>
<path d="M4.66998 32.79H8.40998C9.80339 31.342 10.6485 29.4537 10.8 27.45C10.0383 28.4744 8.92888 29.1856 7.67998 29.45C8.59998 26.45 8.31998 24.16 6.38998 22.64C7.02998 25.05 6.38998 27.37 5.50998 28.05C5.04585 28.4996 4.43956 28.7736 3.79533 28.8247C3.1511 28.8758 2.5092 28.7009 1.97998 28.33C2.47684 30.0238 3.40354 31.5603 4.66998 32.79Z" fill="#33AD5F"/>
<path d="M36.41 32.79H48.7C51.63 28.32 52.61 21.89 50.7 17.14C50.45 18.6 49.42 21.53 47.09 22.81C48.81 16.11 46.41 7.16998 42.09 1.91998C42.6 8.10998 40.09 12.5 38.99 15.25C37.89 18 35.99 19.63 37.7 27.25C36.84 26.99 35.55 24.32 34.95 19.94C34.43 21.74 32.95 23.94 33.14 26.94C33.34 29.5 35.56 31.92 36.41 32.79Z" fill="#4ADE80"/>
<path d="M48.74 24.94C47.99 27.29 46.62 27.29 44.84 29.41C43.98 28.6 43.92 26.66 44.44 24.25C44.96 21.84 44.95 19.66 43.12 13.87C42.12 17.14 39.97 18.17 39.28 22.07C38.7123 25.2083 39.0309 28.4428 40.2 31.41C38.6278 31.123 37.1725 30.3867 36.01 29.29C36.2009 30.643 36.8674 31.8838 37.89 32.79H46.89C47.7603 31.7001 48.3777 30.4305 48.6976 29.073C49.0175 27.7155 49.032 26.3038 48.74 24.94Z" fill="#33AD5F"/>
<path d="M35.41 32.79C38.93 28.72 39.76 26.53 39.84 23.93C39.92 21.33 37.84 19.46 38.46 15.77C38.04 16.02 35.28 17.66 34.85 22.64C33.39 20.64 34.42 15.85 34.85 13.64C35.2593 11.8997 35.2871 10.0915 34.9315 8.33942C34.5759 6.58738 33.8454 4.93304 32.79 3.48999C33.1311 5.59346 32.6358 7.7469 31.41 9.48999C29.53 12.67 26.86 15.16 27.2 23.59C25.31 22.59 25.14 17.4 25.74 13.59C24.62 15.94 21.41 18.34 21.41 23.07C21.33 27.01 24.84 31.42 26.01 32.79H35.41Z" fill="#4ADE80"/>
<path d="M34.07 32.79C37.77 28.33 37.48 25.73 36.66 22.61C35.97 25.19 35.23 25.94 34.02 26.86C33.39 26.11 32.48 23.65 31.96 20.26C31.44 16.87 32.65 14.42 32.88 10.98C32.59 12.76 30.53 14.98 29.32 18.26C28.5357 21.013 28.1683 23.8681 28.23 26.73C25.6 26.04 24.11 22.2 23.82 19.62C23.0299 21.5621 22.9102 23.7122 23.48 25.73C23.98 28.21 26.77 31.57 27.85 32.81L34.07 32.79Z" fill="#33AD5F"/>
<path d="M19.12 32.58L18.9 32.79H11.79C10.6673 31.2446 9.78406 29.5388 9.17004 27.73C7.95004 24.07 9.37004 20.62 11.17 19.4C10.58 22.33 10.64 24.73 12.66 26.49C11.9 23.28 12.34 21.49 14.92 17.99C17.22 14.9 17.92 13.99 18.2 11.81C19.82 14.25 18.6 17.48 17.95 18.68C16.75 20.88 16.87 24.29 18.28 25.29C19.43 26.12 20.92 25.49 22.34 21.43C25.01 26.9 19.12 32.58 19.12 32.58Z" fill="#4ADE80"/>
<path d="M17.73 32.79H13.3C11.6671 31.0794 10.6745 28.8576 10.49 26.5C11.3802 27.7268 12.6896 28.5843 14.17 28.91C13.08 25.41 13.42 22.67 15.68 20.91C14.93 23.75 15.68 26.49 16.68 27.29C17.2273 27.8193 17.9417 28.1417 18.7007 28.2019C19.4597 28.2621 20.2161 28.0563 20.84 27.62C20.2605 29.58 19.19 31.3596 17.73 32.79Z" fill="#33AD5F"/>
<path d="M50.41 32.79C46.47 28.23 45.54 25.79 45.41 22.88C45.28 19.97 47.63 17.88 46.95 13.75C47.43 14.04 50.51 15.86 50.95 21.44C52.58 19.23 51.43 13.84 50.95 11.34C50.4925 9.39518 50.462 7.37427 50.8608 5.41656C51.2596 3.45884 52.0781 1.61087 53.26 0C53.16 1.25 52.68 3.17 54.8 6.73C56.92 10.29 59.89 13.07 59.51 22.5C61.62 21.44 61.82 15.57 61.14 11.34C62.39 13.94 65.95 16.63 66.05 21.92C66.13 26.32 62.21 31.26 60.9 32.79H50.41Z" fill="#4ADE80"/>
<path d="M51.8599 32.79C47.7099 27.79 48.0399 24.9 48.9599 21.41C49.7299 24.29 50.5599 25.13 51.9599 26.15C52.6599 25.32 53.6899 22.56 54.2699 18.78C54.8499 15 53.4999 12.24 53.2699 8.38995C53.5899 10.39 55.8999 12.82 57.2699 16.54C58.1244 19.6247 58.5088 22.8206 58.4099 26.02C61.4099 25.25 63.0299 20.96 63.3499 18.08C63.9899 19.61 64.4399 21.41 63.7299 24.87C63.1699 27.64 60.0599 31.4 58.8399 32.79H51.8599Z" fill="#33AD5F"/>
<path d="M66.07 32.79H75.92C78.27 29.2 79.06 24.03 77.55 20.21C77.4016 21.1218 77.0676 21.9933 76.5688 22.7708C76.07 23.5483 75.4169 24.2151 74.65 24.73C76.04 19.34 74.1 12.15 70.65 7.94C71.06 12.94 69.06 16.44 68.16 18.65C67.26 20.86 65.74 22.17 67.16 28.33C66.41 28.16 65.41 26.02 64.91 22.49C64.5 23.94 63.32 25.67 63.46 28.16C63.57 30.14 65.35 32.09 66.07 32.79Z" fill="#4ADE80"/>
<path d="M75.94 26.48C75.35 28.37 74.24 28.37 72.81 30.07C72.12 29.43 72.07 27.86 72.49 25.92C72.91 23.98 72.9 22.24 71.43 17.58C70.65 20.21 68.9 21.04 68.34 24.17C67.8773 26.7097 68.1336 29.3282 69.08 31.73C67.8205 31.4962 66.6544 30.9062 65.72 30.03C65.8727 31.1143 66.4041 32.1096 67.22 32.84H74.41C75.125 31.9621 75.6337 30.9348 75.8985 29.834C76.1633 28.7332 76.1775 27.587 75.94 26.48Z" fill="#33AD5F"/>
<path d="M89.0299 32.79H77.2899C74.4799 28.51 73.5399 22.34 75.2899 17.79C75.5399 19.19 76.5299 21.99 78.7499 23.23C77.0999 16.8 79.4099 8.22998 83.5299 3.22998C83.0399 9.15998 85.4299 13.37 86.5299 16C87.6299 18.63 89.4099 20.21 87.7699 27.54C88.5899 27.3 89.8299 24.74 90.3999 20.54C90.8999 22.27 92.2999 24.33 92.1299 27.3C92.0099 29.64 89.8799 31.95 89.0299 32.79Z" fill="#4ADE80"/>
<path d="M77.2501 25.26C77.9701 27.51 79.2501 27.51 80.9901 29.55C81.8101 28.78 81.8701 26.91 81.3701 24.55C80.8701 22.19 80.8801 20.15 82.6401 14.61C83.5701 17.74 85.6401 18.73 86.3201 22.46C86.8749 25.4832 86.57 28.6015 85.4401 31.46C86.9364 31.1871 88.324 30.4934 89.4401 29.46C89.2585 30.7532 88.6242 31.9402 87.6501 32.81H79.0401C78.1974 31.7647 77.5994 30.5442 77.2896 29.2378C76.9799 27.9314 76.9664 26.5723 77.2501 25.26Z" fill="#33AD5F"/>
<path d="M98.4799 32.61L98.2899 32.79H92.0999C91.1262 31.4371 90.3579 29.9476 89.8199 28.37C88.7599 25.18 89.9999 22.18 91.5899 21.12C91.0699 23.67 91.1299 25.75 92.8899 27.29C92.2299 24.49 92.6099 22.9 94.8899 19.89C96.8899 17.2 97.4699 16.38 97.7399 14.52C99.1499 16.64 98.0899 19.45 97.5199 20.52C96.5199 22.44 96.5899 25.4 97.8099 26.27C98.8099 26.99 100.11 26.45 101.34 22.92C103.61 27.66 98.4799 32.61 98.4799 32.61Z" fill="#4ADE80"/>
<path d="M97.27 32.79H93.41C91.9826 31.3026 91.1166 29.3654 90.96 27.31C91.7336 28.3827 92.8772 29.1308 94.17 29.41C93.17 26.41 93.51 23.98 95.48 22.41C94.82 24.88 95.48 27.26 96.39 27.96C96.8674 28.4183 97.4886 28.6975 98.1483 28.7503C98.808 28.8032 99.4656 28.6264 100.01 28.25C99.4993 29.9724 98.556 31.5354 97.27 32.79Z" fill="#33AD5F"/>
<path d="M102.287 32.79H114.577C117.507 28.32 118.487 21.89 116.577 17.14C116.327 18.6 115.297 21.53 112.967 22.81C114.687 16.11 112.287 7.16998 107.967 1.91998C108.477 8.10998 105.967 12.5 104.867 15.25C103.767 18 101.867 19.63 103.577 27.25C102.717 26.99 101.427 24.32 100.827 19.94C100.307 21.74 98.8267 23.94 99.0167 26.94C99.2167 29.5 101.437 31.92 102.287 32.79Z" fill="#4ADE80"/>
<path d="M114.617 24.94C113.867 27.29 112.497 27.29 110.717 29.41C109.857 28.6 109.797 26.66 110.317 24.25C110.837 21.84 110.827 19.66 108.997 13.87C107.997 17.14 105.847 18.17 105.157 22.07C104.589 25.2083 104.908 28.4428 106.077 31.41C104.505 31.123 103.049 30.3867 101.887 29.29C102.078 30.643 102.744 31.8838 103.767 32.79H112.767C113.637 31.7001 114.254 30.4305 114.574 29.073C114.894 27.7155 114.909 26.3038 114.617 24.94Z" fill="#33AD5F"/>
<path d="M116.287 32.79C112.347 28.23 111.417 25.79 111.287 22.88C111.157 19.97 113.507 17.88 112.827 13.75C113.307 14.04 116.387 15.86 116.827 21.44C118.457 19.23 117.307 13.84 116.827 11.34C116.369 9.39518 116.339 7.37427 116.738 5.41656C117.136 3.45884 117.955 1.61087 119.137 0C119.037 1.25 118.557 3.17 120.677 6.73C122.797 10.29 125.767 13.07 125.387 22.5C127.497 21.44 127.697 15.57 127.017 11.34C128.267 13.94 131.827 16.63 131.927 21.92C132.007 26.32 128.087 31.26 126.777 32.79H116.287Z" fill="#4ADE80"/>
<path d="M117.737 32.79C113.587 27.79 113.917 24.9 114.837 21.41C115.607 24.29 116.437 25.13 117.837 26.15C118.537 25.32 119.567 22.56 120.147 18.78C120.727 15 119.377 12.24 119.147 8.38995C119.467 10.39 121.777 12.82 123.147 16.54C124.001 19.6247 124.385 22.8206 124.287 26.02C127.287 25.25 128.907 20.96 129.227 18.08C129.867 19.61 130.317 21.41 129.607 24.87C129.047 27.64 125.937 31.4 124.717 32.79H117.737Z" fill="#33AD5F"/>
<path d="M131.947 32.79H141.797C144.147 29.2 144.937 24.03 143.427 20.21C143.278 21.1218 142.944 21.9933 142.446 22.7708C141.947 23.5483 141.294 24.2151 140.527 24.73C141.917 19.34 139.977 12.15 136.527 7.94C136.937 12.94 134.937 16.44 134.037 18.65C133.137 20.86 131.617 22.17 133.037 28.33C132.287 28.16 131.287 26.02 130.787 22.49C130.377 23.94 129.197 25.67 129.337 28.16C129.447 30.14 131.227 32.09 131.947 32.79Z" fill="#4ADE80"/>
<path d="M141.817 26.48C141.227 28.37 140.117 28.37 138.687 30.07C137.997 29.43 137.947 27.86 138.367 25.92C138.787 23.98 138.777 22.24 137.307 17.58C136.527 20.21 134.777 21.04 134.217 24.17C133.754 26.7097 134.01 29.3282 134.957 31.73C133.697 31.4962 132.531 30.9062 131.597 30.03C131.749 31.1143 132.281 32.1096 133.097 32.84H140.287C141.002 31.9621 141.51 30.9348 141.775 29.834C142.04 28.7332 142.054 27.587 141.817 26.48Z" fill="#33AD5F"/>
<path d="M154.907 32.79H143.167C140.357 28.51 139.417 22.34 141.167 17.79C141.417 19.19 142.407 21.99 144.627 23.23C142.977 16.8 145.287 8.22998 149.407 3.22998C148.917 9.15998 151.307 13.37 152.407 16C153.507 18.63 155.287 20.21 153.647 27.54C154.467 27.3 155.707 24.74 156.277 20.54C156.777 22.27 158.177 24.33 158.007 27.3C157.887 29.64 155.757 31.95 154.907 32.79Z" fill="#4ADE80"/>
<path d="M143.127 25.26C143.847 27.51 145.127 27.51 146.867 29.55C147.687 28.78 147.747 26.91 147.247 24.55C146.747 22.19 146.757 20.15 148.517 14.61C149.447 17.74 151.517 18.73 152.197 22.46C152.752 25.4832 152.447 28.6015 151.317 31.46C152.813 31.1871 154.201 30.4934 155.317 29.46C155.135 30.7532 154.501 31.9402 153.527 32.81H144.917C144.074 31.7647 143.476 30.5442 143.166 29.2378C142.857 27.9314 142.843 26.5723 143.127 25.26Z" fill="#33AD5F"/>
<path d="M164.357 32.61L164.167 32.79H157.977C157.003 31.4371 156.235 29.9476 155.697 28.37C154.637 25.18 155.877 22.18 157.467 21.12C156.947 23.67 157.007 25.75 158.767 27.29C158.107 24.49 158.487 22.9 160.767 19.89C162.767 17.2 163.347 16.38 163.617 14.52C165.027 16.64 163.967 19.45 163.397 20.52C162.397 22.44 162.467 25.4 163.687 26.27C164.687 26.99 165.987 26.45 167.217 22.92C169.487 27.66 164.357 32.61 164.357 32.61Z" fill="#4ADE80"/>
<path d="M163.147 32.79H159.287C157.859 31.3026 156.993 29.3654 156.837 27.31C157.61 28.3827 158.754 29.1308 160.047 29.41C159.047 26.41 159.387 23.98 161.357 22.41C160.697 24.88 161.357 27.26 162.267 27.96C162.744 28.4183 163.365 28.6975 164.025 28.7503C164.685 28.8032 165.342 28.6264 165.887 28.25C165.376 29.9724 164.433 31.5354 163.147 32.79Z" fill="#33AD5F"/>
<path d="M170.287 32.79H182.577C185.507 28.32 186.487 21.89 184.577 17.14C184.327 18.6 183.297 21.53 180.967 22.81C182.687 16.11 180.287 7.16998 175.967 1.91998C176.477 8.10998 173.967 12.5 172.867 15.25C171.767 18 169.867 19.63 171.577 27.25C170.717 26.99 169.427 24.32 168.827 19.94C168.307 21.74 166.827 23.94 167.017 26.94C167.217 29.5 169.437 31.92 170.287 32.79Z" fill="#4ADE80"/>
<path d="M182.617 24.94C181.867 27.29 180.497 27.29 178.717 29.41C177.857 28.6 177.797 26.66 178.317 24.25C178.837 21.84 178.827 19.66 176.997 13.87C175.997 17.14 173.847 18.17 173.157 22.07C172.589 25.2083 172.908 28.4428 174.077 31.41C172.505 31.123 171.049 30.3867 169.887 29.29C170.078 30.643 170.744 31.8838 171.767 32.79H180.767C181.637 31.7001 182.254 30.4305 182.574 29.073C182.894 27.7155 182.909 26.3038 182.617 24.94Z" fill="#33AD5F"/>
</svg>
