<svg width="48" height="48" viewBox="0 0 48 48" fill="none" xmlns="http://www.w3.org/2000/svg">
<rect x="47" y="47" width="46" height="46" rx="5" transform="rotate(180 47 47)" stroke="#6B6B82" stroke-width="2"/>
<path d="M8.30296 9.9183C7.90314 10.4569 7.09686 10.4569 6.69705 9.9183L4.78764 7.34604C4.29783 6.6862 4.76882 5.75 5.59059 5.75L9.40941 5.75C10.2312 5.75 10.7022 6.68619 10.2124 7.34604L8.30296 9.9183Z" fill="#FF620A"/>
<path d="M19.303 9.9183C18.9031 10.4569 18.0969 10.4569 17.697 9.9183L15.7876 7.34604C15.2978 6.6862 15.7688 5.75 16.5906 5.75L20.4094 5.75C21.2312 5.75 21.7022 6.68619 21.2124 7.34604L19.303 9.9183Z" fill="#FF620A"/>
<path d="M30.303 9.9183C29.9031 10.4569 29.0969 10.4569 28.697 9.9183L26.7876 7.34604C26.2978 6.6862 26.7688 5.75 27.5906 5.75L31.4094 5.75C32.2312 5.75 32.7022 6.68619 32.2124 7.34604L30.303 9.9183Z" fill="#FF620A"/>
<path d="M41.303 9.9183C40.9031 10.4569 40.0969 10.4569 39.697 9.9183L37.7876 7.34604C37.2978 6.6862 37.7688 5.75 38.5906 5.75L42.4094 5.75C43.2312 5.75 43.7022 6.68619 43.2124 7.34604L41.303 9.9183Z" fill="#FF620A"/>
<rect x="45.4399" y="4.82349" width="42.88" height="2.82353" rx="1.41176" transform="rotate(180 45.4399 4.82349)" fill="#FF620A"/>
</svg>
