<svg width="48" height="48" viewBox="0 0 48 48" fill="none" xmlns="http://www.w3.org/2000/svg">
<rect x="47" y="47" width="46" height="46" rx="5" transform="rotate(180 47 47)" stroke="#6B6B82" stroke-width="2"/>
<path d="M8.7429 9.91836C8.34308 10.457 7.5368 10.457 7.13699 9.91836L5.22758 7.3461C4.73777 6.68626 5.20876 5.75006 6.03053 5.75006L9.84935 5.75006C10.6711 5.75006 11.1421 6.68626 10.6523 7.3461L8.7429 9.91836Z" fill="#FF620A"/>
<path d="M19.7429 9.91836C19.3431 10.457 18.5368 10.457 18.137 9.91836L16.2276 7.3461C15.7378 6.68626 16.2088 5.75006 17.0305 5.75006L20.8493 5.75006C21.6711 5.75006 22.1421 6.68626 21.6523 7.3461L19.7429 9.91836Z" fill="#FF620A"/>
<path d="M30.7429 9.91836C30.3431 10.457 29.5368 10.457 29.137 9.91836L27.2276 7.3461C26.7378 6.68626 27.2088 5.75006 28.0305 5.75006L31.8493 5.75006C32.6711 5.75006 33.1421 6.68626 32.6523 7.3461L30.7429 9.91836Z" fill="#FF620A"/>
<path d="M41.7429 9.91836C41.3431 10.457 40.5368 10.457 40.137 9.91836L38.2276 7.3461C37.7378 6.68626 38.2088 5.75006 39.0305 5.75006L42.8493 5.75006C43.6711 5.75006 44.1421 6.68626 43.6523 7.3461L41.7429 9.91836Z" fill="#FF620A"/>
<rect x="45.8799" y="4.82355" width="42.88" height="2.82353" rx="1.41176" transform="rotate(180 45.8799 4.82355)" fill="#FF620A"/>
<rect width="1" height="11" transform="matrix(-1 0 0 1 43 20)" fill="#FF620A"/>
<path d="M43 21.2222L43 20L38.488 20L37 20.6111L38.488 21.2222L43 21.2222Z" fill="#FF620A"/>
<path d="M43 31L43 29.7778L38.488 29.7778L37 30.3889L38.488 31L43 31Z" fill="#FF620A"/>
<rect x="34" y="24.8889" width="12" height="1.22222" rx="0.611111" fill="#FF620A"/>
<rect x="5" y="20" width="1" height="11" fill="#FF620A"/>
<path d="M5 21.2222L5 20L9.512 20L11 20.6111L9.512 21.2222L5 21.2222Z" fill="#FF620A"/>
<path d="M5 31L5 29.7778L9.512 29.7778L11 30.3889L9.512 31L5 31Z" fill="#FF620A"/>
<rect width="12" height="1.22222" rx="0.611111" transform="matrix(-1 0 0 1 14 24.8889)" fill="#FF620A"/>
</svg>
