<svg width="48" height="48" viewBox="0 0 48 48" fill="none" xmlns="http://www.w3.org/2000/svg">
<rect x="47" y="47" width="46" height="46" rx="5" transform="rotate(180 47 47)" stroke="#6B6B82" stroke-width="2"/>
<path d="M8.30296 5.9183C7.90314 6.45691 7.09686 6.45691 6.69705 5.9183L4.78764 3.34604C4.29783 2.6862 4.76882 1.75 5.59059 1.75L9.40941 1.75C10.2312 1.75 10.7022 2.68619 10.2124 3.34604L8.30296 5.9183Z" fill="#FF620A"/>
<path d="M19.303 5.9183C18.9031 6.45691 18.0969 6.45691 17.697 5.9183L15.7876 3.34604C15.2978 2.6862 15.7688 1.75 16.5906 1.75L20.4094 1.75C21.2312 1.75 21.7022 2.68619 21.2124 3.34604L19.303 5.9183Z" fill="#FF620A"/>
<path d="M30.303 5.9183C29.9031 6.45691 29.0969 6.45691 28.697 5.9183L26.7876 3.34604C26.2978 2.6862 26.7688 1.75 27.5906 1.75L31.4094 1.75C32.2312 1.75 32.7022 2.68619 32.2124 3.34604L30.303 5.9183Z" fill="#FF620A"/>
<path d="M41.303 5.9183C40.9031 6.45691 40.0969 6.45691 39.697 5.9183L37.7876 3.34604C37.2978 2.6862 37.7688 1.75 38.5906 1.75L42.4094 1.75C43.2312 1.75 43.7022 2.68619 43.2124 3.34604L41.303 5.9183Z" fill="#FF620A"/>
<rect width="1" height="11" transform="matrix(-1 0 0 1 43 18)" fill="#FF620A"/>
<path d="M43 19.2222L43 18L38.488 18L37 18.6111L38.488 19.2222L43 19.2222Z" fill="#FF620A"/>
<path d="M43 29L43 27.7778L38.488 27.7778L37 28.3889L38.488 29L43 29Z" fill="#FF620A"/>
<rect x="34" y="22.8889" width="12" height="1.22222" rx="0.611111" fill="#FF620A"/>
<rect x="5" y="18" width="1" height="11" fill="#FF620A"/>
<path d="M5 19.2222L5 18L9.512 18L11 18.6111L9.512 19.2222L5 19.2222Z" fill="#FF620A"/>
<path d="M5 29L5 27.7778L9.512 27.7778L11 28.3889L9.512 29L5 29Z" fill="#FF620A"/>
<rect width="12" height="1.22222" rx="0.611111" transform="matrix(-1 0 0 1 14 22.8889)" fill="#FF620A"/>
</svg>
