<svg width="24" height="24" viewBox="0 0 24 24" fill="none" xmlns="http://www.w3.org/2000/svg">
<path d="M17.79 22.25H6.21C3.47 22.25 1.25 20.02 1.25 17.28V9.86997C1.25 8.50997 2.09 6.79997 3.17 5.95997L8.56 1.75997C10.18 0.499974 12.77 0.439974 14.45 1.61997L20.63 5.94997C21.82 6.77997 22.75 8.55997 22.75 10.01V17.29C22.75 20.02 20.53 22.25 17.79 22.25ZM9.48 2.93997L4.09 7.13997C3.38 7.69997 2.75 8.96997 2.75 9.86997V17.28C2.75 19.19 4.3 20.75 6.21 20.75H17.79C19.7 20.75 21.25 19.2 21.25 17.29V10.01C21.25 9.04997 20.56 7.71997 19.77 7.17997L13.59 2.84997C12.45 2.04997 10.57 2.08997 9.48 2.93997Z" fill="white"/>
<path d="M12 18.25C11.59 18.25 11.25 17.91 11.25 17.5V14.5C11.25 14.09 11.59 13.75 12 13.75C12.41 13.75 12.75 14.09 12.75 14.5V17.5C12.75 17.91 12.41 18.25 12 18.25Z" fill="white"/>
</svg>
