<svg width="29" height="35" viewBox="0 0 29 35" fill="none" xmlns="http://www.w3.org/2000/svg">
<g id="D - 344, Drink, food, grocery, kitchen">
<path id="Vector" d="M27.3936 14.8662H23.7066L21.732 8.34545C21.6869 8.20183 21.5982 8.0758 21.4783 7.98485C21.3583 7.89389 21.2131 7.84252 21.0626 7.83785H17.5317V1.53469C17.5289 1.34274 17.4517 1.15936 17.3165 1.02309C17.1813 0.886822 16.9985 0.80828 16.8066 0.80397H11.2286C11.0356 0.80685 10.8515 0.884761 10.715 1.02118C10.5786 1.1576 10.5007 1.34179 10.4978 1.53469V7.86016H7.06177C6.91791 7.86764 6.77954 7.91778 6.6643 8.00421C6.54906 8.09064 6.46217 8.20944 6.41472 8.34545L4.42895 14.8662H0.73072C0.537818 14.869 0.353626 14.9469 0.217208 15.0834C0.0807909 15.2198 0.00287961 15.404 0 15.5969V21.1749C0.00287961 21.3678 0.0807909 21.552 0.217208 21.6884C0.353626 21.8248 0.537818 21.9027 0.73072 21.9056H27.3379C27.5298 21.9013 27.7126 21.8228 27.8478 21.6865C27.983 21.5502 28.0602 21.3668 28.063 21.1749V15.5969C28.0637 15.4132 27.9951 15.2361 27.8711 15.1007C27.7471 14.9653 27.5766 14.8816 27.3936 14.8662ZM11.9927 2.25983H16.193V7.83785H11.9927V2.25983ZM7.56379 9.26024H20.5048L22.1782 14.8383H5.88481L7.56379 9.26024ZM26.6629 20.4665H1.45586V16.2662H26.6629V20.4665Z" fill="#9898FF"/>
<path id="Vector_2" d="M15.4622 16.9356C15.1853 16.9356 14.9146 17.0177 14.6844 17.1716C14.4541 17.3254 14.2747 17.5441 14.1687 17.7999C14.0627 18.0557 14.035 18.3372 14.089 18.6088C14.1431 18.8804 14.2764 19.1299 14.4722 19.3257C14.668 19.5215 14.9175 19.6548 15.1891 19.7089C15.4607 19.7629 15.7422 19.7352 15.998 19.6292C16.2538 19.5232 16.4725 19.3438 16.6263 19.1135C16.7802 18.8833 16.8623 18.6126 16.8623 18.3357C16.8638 18.1514 16.8286 17.9687 16.7588 17.7981C16.6889 17.6276 16.5858 17.4727 16.4555 17.3424C16.3252 17.2121 16.1703 17.109 15.9998 17.0392C15.8292 16.9693 15.6465 16.9341 15.4622 16.9356Z" fill="#9898FF"/>
<path id="Vector_3" d="M19.6625 16.9356C19.3856 16.9356 19.1149 17.0177 18.8847 17.1716C18.6544 17.3254 18.475 17.5441 18.369 17.7999C18.2631 18.0557 18.2353 18.3372 18.2894 18.6088C18.3434 18.8804 18.4767 19.1299 18.6725 19.3257C18.8683 19.5215 19.1178 19.6548 19.3894 19.7089C19.661 19.7629 19.9425 19.7352 20.1983 19.6292C20.4542 19.5232 20.6728 19.3438 20.8267 19.1135C20.9805 18.8833 21.0626 18.6126 21.0626 18.3357C21.0641 18.1514 21.0289 17.9687 20.9591 17.7981C20.8892 17.6276 20.7862 17.4727 20.6559 17.3424C20.5255 17.2121 20.3706 17.109 20.2001 17.0392C20.0295 16.9693 19.8468 16.9341 19.6625 16.9356Z" fill="#9898FF"/>
<path id="Vector_4" d="M22.4626 18.3357C22.4626 18.6126 22.5448 18.8833 22.6986 19.1135C22.8524 19.3438 23.0711 19.5232 23.3269 19.6292C23.5828 19.7352 23.8643 19.7629 24.1359 19.7089C24.4075 19.6548 24.6569 19.5215 24.8527 19.3257C25.0485 19.1299 25.1819 18.8804 25.2359 18.6088C25.2899 18.3372 25.2622 18.0557 25.1562 17.7999C25.0503 17.5441 24.8708 17.3254 24.6406 17.1716C24.4103 17.0177 24.1396 16.9356 23.8627 16.9356C23.4932 16.9414 23.1404 17.0907 22.8791 17.352C22.6178 17.6134 22.4684 17.9662 22.4626 18.3357Z" fill="#9898FF"/>
<path id="Vector_5" d="M7.34071 33.123C7.10261 32.9513 6.90072 32.7344 6.74662 32.4845C6.59251 32.2347 6.48921 31.9569 6.44265 31.6671C6.33338 31.2541 6.32186 30.8212 6.409 30.403C6.49614 29.9847 6.67954 29.5925 6.94467 29.2574C7.48692 28.5329 7.77998 27.6523 7.77998 26.7473C7.77998 25.8423 7.48692 24.9617 6.94467 24.2372C6.84111 24.0893 6.68303 23.9885 6.50519 23.9571C6.32736 23.9258 6.14434 23.9663 5.9964 24.0699C5.84847 24.1734 5.74772 24.3315 5.71634 24.5093C5.68496 24.6872 5.72551 24.8702 5.82906 25.0181C5.82906 25.0181 7.06181 26.7529 5.82906 28.3649C5.43897 28.8649 5.16999 29.4484 5.04322 30.0697C4.91644 30.691 4.93531 31.3332 5.09834 31.946C5.20327 32.4393 5.41232 32.9044 5.71148 33.3104C6.01065 33.7163 6.39305 34.0537 6.83311 34.2999C7.00496 34.3751 7.19888 34.3823 7.37585 34.3202C7.55282 34.2581 7.69971 34.1313 7.78695 33.9653C7.80714 33.7961 7.77524 33.6249 7.69549 33.4744C7.61575 33.3239 7.49198 33.2013 7.34071 33.123Z" fill="#9898FF"/>
<path id="Vector_6" d="M15.0662 33.123C14.5874 32.7752 14.2664 32.2516 14.1737 31.6671C14.0645 31.2541 14.0529 30.8212 14.1401 30.403C14.2272 29.9847 14.4106 29.5925 14.6758 29.2574C15.2163 28.5322 15.5083 27.6518 15.5083 26.7473C15.5083 25.8428 15.2163 24.9624 14.6758 24.2372C14.6245 24.1639 14.5593 24.1015 14.4839 24.0535C14.4085 24.0054 14.3243 23.9727 14.2363 23.9571C14.1482 23.9416 14.058 23.9436 13.9707 23.9629C13.8834 23.9822 13.8007 24.0186 13.7275 24.0699C13.6542 24.1211 13.5918 24.1863 13.5438 24.2617C13.4957 24.3371 13.463 24.4213 13.4474 24.5093C13.4319 24.5974 13.4338 24.6876 13.4532 24.7749C13.4725 24.8622 13.5089 24.9449 13.5602 25.0181C13.5602 25.0181 14.7929 26.7529 13.5602 28.3649C13.1722 28.8659 12.9049 29.4497 12.7791 30.0707C12.6534 30.6918 12.6725 31.3335 12.835 31.946C12.9399 32.4393 13.149 32.9044 13.4482 33.3104C13.7473 33.7163 14.1297 34.0537 14.5698 34.2999C14.6503 34.3397 14.738 34.3626 14.8277 34.3671C14.9173 34.3717 15.007 34.3579 15.0911 34.3266C15.1752 34.2952 15.252 34.247 15.3168 34.1849C15.3816 34.1227 15.433 34.048 15.4678 33.9653C15.5131 33.8 15.4974 33.6241 15.4237 33.4694C15.3499 33.3148 15.2231 33.1918 15.0662 33.123Z" fill="#9898FF"/>
<path id="Vector_7" d="M22.7416 33.123C22.2628 32.7752 21.9418 32.2516 21.8491 31.6671C21.7372 31.2543 21.7243 30.8209 21.8116 30.4021C21.8988 29.9834 22.0837 29.5912 22.3512 29.2574C22.8909 28.5318 23.1823 27.6516 23.1823 26.7473C23.1823 25.843 22.8909 24.9628 22.3512 24.2372C22.2999 24.1639 22.2347 24.1015 22.1593 24.0535C22.0839 24.0054 21.9997 23.9727 21.9117 23.9571C21.8236 23.9416 21.7334 23.9436 21.6461 23.9629C21.5588 23.9822 21.4761 24.0186 21.4029 24.0699C21.3296 24.1211 21.2672 24.1863 21.2192 24.2617C21.1711 24.3371 21.1384 24.4213 21.1228 24.5093C21.1073 24.5974 21.1092 24.6876 21.1286 24.7749C21.1479 24.8622 21.1843 24.9449 21.2356 25.0181C21.2356 25.0181 22.4683 26.7529 21.2356 28.3649C20.8464 28.8653 20.5784 29.4491 20.4526 30.0704C20.3268 30.6917 20.3466 31.3336 20.5104 31.946C20.6143 32.4397 20.823 32.9052 21.1222 33.3113C21.4215 33.7174 21.8044 34.0545 22.2452 34.2999C22.3252 34.3396 22.4126 34.3624 22.5019 34.3669C22.5911 34.3714 22.6803 34.3576 22.764 34.3262C22.8477 34.2948 22.924 34.2466 22.9883 34.1845C23.0526 34.1224 23.1034 34.0478 23.1377 33.9653C23.1833 33.8007 23.1684 33.6253 23.0957 33.4707C23.0231 33.3162 22.8974 33.1928 22.7416 33.123Z" fill="#9898FF"/>
</g>
</svg>
