<svg width="157" height="147" viewBox="0 0 157 147" fill="none" xmlns="http://www.w3.org/2000/svg">
<g clip-path="url(#clip0_7_37)">
<path d="M21.6045 40.0404C18.6058 42.2361 16.116 45.3858 14.3836 49.1751C12.6513 52.9644 11.7371 57.2607 11.7322 61.6352V108.036C11.7915 110.481 12.6032 112.801 13.9951 114.504C15.387 116.208 17.2499 117.16 19.1889 117.16C21.1279 117.16 22.9908 116.208 24.3827 114.504C25.7746 112.801 26.5862 110.481 26.6456 108.036V61.6352C26.651 60.5632 26.8776 59.5114 27.303 58.5833C27.7284 57.6553 28.338 56.883 29.0717 56.3424L78.4825 20.2892L71.6166 15.508C69.0628 13.7301 66.1884 12.8146 63.2718 12.8501C60.3552 12.8857 57.4953 13.8711 54.9692 15.7109" fill="#9999FF"/>
<path d="M84.8381 4.4548C83.7676 4.57832 82.7318 4.99691 81.8036 5.68098L28.6662 44.4952C25.6604 46.6764 23.1609 49.8147 21.4175 53.5965C19.674 57.3782 18.7476 61.671 18.731 66.0459V112.447C18.7302 114.198 19.1177 115.916 19.8496 117.404C21.7055 117.197 23.4325 116.12 24.6905 114.386C25.9484 112.652 26.6459 110.386 26.6456 108.036V61.6352C26.6511 60.5631 26.8776 59.5114 27.303 58.5833C27.7284 57.6553 28.338 56.883 29.0718 56.3423L82.2092 17.5722C83.921 16.3233 85.1697 14.268 85.681 11.8579C86.1923 9.44788 85.9243 6.88031 84.9359 4.71945L84.8381 4.4548Z" fill="#6E6EA9"/>
<path d="M101.234 127.716C101.232 130.273 100.426 132.724 98.9934 134.532C97.5606 136.339 95.6179 137.356 93.5917 137.358H63.4153C61.3878 137.358 59.4434 136.343 58.0091 134.535C56.5748 132.727 55.7681 130.274 55.7663 127.716H7.642C5.61521 127.716 3.67144 128.732 2.23829 130.54C0.805137 132.349 0 134.801 0 137.358C0 138.624 0.197666 139.878 0.581712 141.048C0.965758 142.218 1.52866 143.281 2.23829 144.176C2.94791 145.071 3.79036 145.782 4.71753 146.266C5.6447 146.751 6.63843 147 7.642 147H149.358C150.362 147 151.355 146.751 152.282 146.266C153.21 145.782 154.052 145.071 154.762 144.176C155.471 143.281 156.034 142.218 156.418 141.048C156.802 139.878 157 138.624 157 137.358C157 134.801 156.195 132.349 154.762 130.54C153.329 128.732 151.385 127.716 149.358 127.716H101.234Z" fill="#9898FF"/>
<path d="M149.358 140.71H7.642C6.05162 140.71 4.50104 140.083 3.20639 138.917C1.91174 137.752 0.937515 136.106 0.419513 134.209C0.140627 135.222 -0.00118923 136.286 7.51124e-06 137.358C7.51124e-06 139.915 0.805144 142.368 2.2383 144.176C3.67145 145.984 5.61522 147 7.642 147H149.358C151.385 147 153.329 145.984 154.762 144.176C156.195 142.368 157 139.915 157 137.358C157.001 136.286 156.859 135.222 156.581 134.209C156.063 136.107 155.089 137.754 153.795 138.919C152.5 140.085 150.949 140.711 149.358 140.71Z" fill="#6E6EA9"/>
<path d="M135.395 40.0404L82.2581 1.22617C81.1245 0.398321 79.8378 -0.0375977 78.528 -0.0375977C77.2182 -0.0375977 75.9315 0.398321 74.7979 1.22617L68.8759 5.55748C69.9925 4.80773 71.2421 4.42892 72.5069 4.4567C73.7716 4.48447 75.01 4.91794 76.1053 5.71626L129.243 44.5305C132.241 46.7184 134.732 49.8596 136.468 53.6409C138.204 57.4221 139.124 61.7115 139.136 66.0812V112.491C139.138 114.236 138.753 115.947 138.024 117.431C139.962 117.359 141.802 116.339 143.153 114.585C144.504 112.831 145.26 110.482 145.261 108.036V61.6352C145.257 57.2616 144.343 52.9659 142.612 49.1766C140.881 45.3874 138.393 42.2372 135.395 40.0404Z" fill="#6E6EA9"/>
<path d="M142.045 115.772C141.926 115.878 141.793 115.975 141.66 116.081C141.793 115.975 141.933 115.878 142.045 115.772Z" fill="url(#paint0_linear_7_37)"/>
<path d="M140.807 116.646C140.667 116.725 140.513 116.795 140.367 116.857C140.534 116.795 140.667 116.725 140.807 116.646Z" fill="url(#paint1_linear_7_37)"/>
<path d="M141.443 116.24C141.31 116.337 141.171 116.425 141.031 116.513C141.171 116.443 141.31 116.337 141.443 116.24Z" fill="url(#paint2_linear_7_37)"/>
<path d="M54.9692 15.7021C57.4953 13.8623 60.3552 12.8769 63.2718 12.8413C66.1884 12.8058 69.0629 13.7213 71.6166 15.4992L79.2376 20.7921L127.949 56.3247C128.682 56.8664 129.29 57.6392 129.714 58.5672C130.138 59.4952 130.364 60.5464 130.368 61.6176V108.018C130.37 110.513 131.157 112.905 132.556 114.668C133.955 116.431 135.851 117.422 137.829 117.422H138.045C138.774 115.938 139.159 114.227 139.157 112.482V66.0812C139.152 61.7081 138.237 57.4132 136.505 53.6254C134.772 49.8377 132.283 46.6895 129.285 44.4952L76.1473 5.68098C75.0445 4.87863 73.7972 4.44602 72.5243 4.42441C71.2514 4.40279 69.9954 4.79288 68.8759 5.55748" fill="#9898FF"/>
<path d="M139.437 117.21C139.276 117.21 139.122 117.289 138.961 117.316C139.136 117.325 139.276 117.254 139.437 117.21Z" fill="url(#paint3_linear_7_37)"/>
<path d="M145.121 109.915C145.121 110.038 145.065 110.162 145.044 110.294C145.065 110.162 145.1 110.038 145.121 109.915Z" fill="url(#paint4_linear_7_37)"/>
<path d="M144.729 111.661C144.68 111.803 144.624 111.935 144.576 112.076C144.59 111.935 144.645 111.803 144.729 111.661Z" fill="url(#paint5_linear_7_37)"/>
<path d="M142.632 115.234C142.52 115.349 142.394 115.463 142.275 115.569C142.373 115.463 142.499 115.349 142.632 115.234Z" fill="url(#paint6_linear_7_37)"/>
<path d="M144.03 113.24C143.96 113.382 143.877 113.514 143.793 113.655C143.863 113.514 143.946 113.382 144.03 113.24Z" fill="url(#paint7_linear_7_37)"/>
</g>
<defs>
<linearGradient id="paint0_linear_7_37" x1="141.751" y1="115.843" x2="141.968" y2="115.947" gradientUnits="userSpaceOnUse">
<stop offset="0.03" stop-color="#0054D9"/>
<stop offset="0.27" stop-color="#00F9F9"/>
</linearGradient>
<linearGradient id="paint1_linear_7_37" x1="140.436" y1="116.628" x2="140.751" y2="116.79" gradientUnits="userSpaceOnUse">
<stop offset="0.03" stop-color="#0054D9"/>
<stop offset="0.27" stop-color="#00F9F9"/>
<stop offset="0.32" stop-color="#0AF8F1"/>
<stop offset="0.42" stop-color="#25F7DD"/>
<stop offset="0.53" stop-color="#52F4BC"/>
<stop offset="0.68" stop-color="#8FF08E"/>
<stop offset="0.83" stop-color="#DDEB54"/>
<stop offset="0.88" stop-color="#F7E940"/>
</linearGradient>
<linearGradient id="paint2_linear_7_37" x1="141.108" y1="116.275" x2="141.375" y2="116.412" gradientUnits="userSpaceOnUse">
<stop offset="0.03" stop-color="#0054D9"/>
<stop offset="0.27" stop-color="#00F9F9"/>
<stop offset="0.32" stop-color="#0AF8F1"/>
<stop offset="0.42" stop-color="#25F7DD"/>
<stop offset="0.53" stop-color="#52F4BC"/>
<stop offset="0.68" stop-color="#8FF08E"/>
<stop offset="0.83" stop-color="#DDEB54"/>
<stop offset="0.88" stop-color="#F7E940"/>
</linearGradient>
<linearGradient id="paint3_linear_7_37" x1="139.003" y1="117.104" x2="139.404" y2="117.31" gradientUnits="userSpaceOnUse">
<stop offset="0.03" stop-color="#0054D9"/>
<stop offset="0.27" stop-color="#00F9F9"/>
<stop offset="0.32" stop-color="#0AF8F1"/>
<stop offset="0.42" stop-color="#25F7DD"/>
<stop offset="0.53" stop-color="#52F4BC"/>
<stop offset="0.68" stop-color="#8FF08E"/>
<stop offset="0.83" stop-color="#DDEB54"/>
<stop offset="0.88" stop-color="#F7E940"/>
</linearGradient>
<linearGradient id="paint4_linear_7_37" x1="145.03" y1="110.056" x2="145.14" y2="110.112" gradientUnits="userSpaceOnUse">
<stop offset="0.03" stop-color="#0054D9"/>
<stop offset="0.27" stop-color="#00F9F9"/>
<stop offset="0.32" stop-color="#0AF8F1"/>
<stop offset="0.42" stop-color="#25F7DD"/>
<stop offset="0.53" stop-color="#52F4BC"/>
<stop offset="0.68" stop-color="#8FF08E"/>
<stop offset="0.83" stop-color="#DDEB54"/>
<stop offset="0.88" stop-color="#F7E940"/>
</linearGradient>
<linearGradient id="paint5_linear_7_37" x1="144.59" y1="111.847" x2="144.643" y2="111.871" gradientUnits="userSpaceOnUse">
<stop offset="0.03" stop-color="#0054D9"/>
<stop offset="0.27" stop-color="#00F9F9"/>
<stop offset="0.32" stop-color="#0AF8F1"/>
<stop offset="0.42" stop-color="#25F7DD"/>
<stop offset="0.53" stop-color="#52F4BC"/>
<stop offset="0.68" stop-color="#8FF08E"/>
<stop offset="0.83" stop-color="#DDEB54"/>
<stop offset="0.88" stop-color="#F7E940"/>
</linearGradient>
<linearGradient id="paint6_linear_7_37" x1="142.352" y1="115.34" x2="142.516" y2="115.42" gradientUnits="userSpaceOnUse">
<stop offset="0.03" stop-color="#0054D9"/>
<stop offset="0.27" stop-color="#00F9F9"/>
<stop offset="0.32" stop-color="#0AF8F1"/>
<stop offset="0.42" stop-color="#25F7DD"/>
<stop offset="0.53" stop-color="#52F4BC"/>
<stop offset="0.68" stop-color="#8FF08E"/>
<stop offset="0.83" stop-color="#DDEB54"/>
<stop offset="0.88" stop-color="#F7E940"/>
</linearGradient>
<linearGradient id="paint7_linear_7_37" x1="143.89" y1="113.435" x2="143.916" y2="113.455" gradientUnits="userSpaceOnUse">
<stop offset="0.03" stop-color="#0054D9"/>
<stop offset="0.27" stop-color="#00F9F9"/>
<stop offset="0.32" stop-color="#0AF8F1"/>
<stop offset="0.42" stop-color="#25F7DD"/>
<stop offset="0.53" stop-color="#52F4BC"/>
<stop offset="0.68" stop-color="#8FF08E"/>
<stop offset="0.83" stop-color="#DDEB54"/>
<stop offset="0.88" stop-color="#F7E940"/>
</linearGradient>
<clipPath id="clip0_7_37">
<rect width="157" height="147" fill="white"/>
</clipPath>
</defs>
</svg>
