<svg xmlns="http://www.w3.org/2000/svg" viewBox="0 0 64 80" x="0px" y="0px"><g data-name="07 network signal"><path d="M32,2.5a29.5,29.5,0,0,0,0,59,29.929,29.929,0,0,0,4.67-.37,4.623,4.623,0,0,1-1.22-3.15,4.284,4.284,0,0,1,.07-.81,6.66,6.66,0,0,1-2.02,1.09V46.5h4.32l-1.01-1.02a4.66,4.66,0,0,1-1.17-1.98H33.5v-10h9.98c-.04,1.74-.17,3.44-.36,5.08a3.283,3.283,0,0,1,.34.31l2.33,2.35a57.255,57.255,0,0,0,.69-7.74H58.45a26.4,26.4,0,0,1-.64,4.49,4.747,4.747,0,0,1,1.37.95,4.578,4.578,0,0,1,1.05,1.61A29.144,29.144,0,0,0,61.5,32,29.529,29.529,0,0,0,32,2.5ZM24.55,6.57A28.933,28.933,0,0,0,19.32,17.5H9.84A26.611,26.611,0,0,1,24.55,6.57ZM8.13,20.5H18.61a56.6,56.6,0,0,0-1.09,10H5.55A26.216,26.216,0,0,1,8.13,20.5Zm-2.58,13H17.52a56.6,56.6,0,0,0,1.09,10H8.13A26.216,26.216,0,0,1,5.55,33.5Zm4.29,13h9.48a28.933,28.933,0,0,0,5.23,10.93A26.611,26.611,0,0,1,9.84,46.5ZM30.5,58.26c-3.32-1.05-6.25-5.52-8.06-11.76H30.5Zm0-14.76H21.68a54.42,54.42,0,0,1-1.16-10H30.5Zm0-13H20.52a54.42,54.42,0,0,1,1.16-10H30.5Zm0-13H22.44c1.81-6.24,4.74-10.71,8.06-11.76Zm3-11.76c3.32,1.05,6.25,5.52,8.06,11.76H33.5Zm0,24.76v-10h8.82a54.42,54.42,0,0,1,1.16,10ZM39.45,6.57A26.611,26.611,0,0,1,54.16,17.5H44.68A28.933,28.933,0,0,0,39.45,6.57ZM46.48,30.5a56.6,56.6,0,0,0-1.09-10H55.87a26.216,26.216,0,0,1,2.58,10Z"/><path d="M57.06,43.43a1.678,1.678,0,0,0,0-2.37,1.059,1.059,0,0,0-.12-.1,1.666,1.666,0,0,0-2.26.1L52.24,43.5l-3.01,3L48,47.73,46.78,46.5l-4.21-4.24L41.32,41a1.633,1.633,0,0,0-1.18-.5h-.01a1.676,1.676,0,0,0-1.19,2.86l.14.14,4.99,5.04,1.56,1.57-3.85,3.85-2.84,2.83a1.683,1.683,0,1,0,2.38,2.38l4.73-4.72L48,52.5l.33.33,2.13,2.15,4.22,4.25a1.676,1.676,0,1,0,2.38-2.36l-4.1-4.14L50.84,50.6l-.47-.48,3.62-3.62Z"/></g><text x="0" y="79" fill="#000000" font-size="5px" font-weight="bold" font-family="'Helvetica Neue', Helvetica, Arial-Unicode, Arial, Sans-serif">Created by Ryan Adryawan</text><text x="0" y="84" fill="#000000" font-size="5px" font-weight="bold" font-family="'Helvetica Neue', Helvetica, Arial-Unicode, Arial, Sans-serif">from the Noun Project</text></svg>