<svg width="23" height="29" viewBox="0 0 23 29" fill="none" xmlns="http://www.w3.org/2000/svg">
<path d="M20.3263 0.814941H2.09488C1.54048 0.818823 1.00989 1.04078 0.617866 1.43281C0.225838 1.82483 0.00388157 2.35542 0 2.90982V26.1314C0.00389502 26.6853 0.226012 27.2154 0.618177 27.6066C1.01034 27.9978 1.54093 28.2187 2.09488 28.2213H20.3263C20.8797 28.2187 21.4098 27.9977 21.8012 27.6063C22.1926 27.2149 22.4136 26.6848 22.4162 26.1314V2.90982C22.4136 2.35588 22.1927 1.82528 21.8015 1.43312C21.4103 1.04095 20.8802 0.818836 20.3263 0.814941ZM1.24507 8.28536H21.1711V21.3882H1.24507V8.28536ZM2.09488 2.06001H20.3263C20.5488 2.06747 20.7601 2.15955 20.9171 2.31746C21.0741 2.47538 21.165 2.68723 21.1711 2.90982V7.04029H1.24507V2.90982C1.2513 2.6864 1.34283 2.47385 1.50087 2.31581C1.65891 2.15777 1.87146 2.06624 2.09488 2.06001ZM20.3263 26.9663H2.09488C1.87191 26.9614 1.65938 26.8709 1.50121 26.7137C1.34305 26.5564 1.25135 26.3444 1.24507 26.1215V22.6333H21.1711V26.1215C21.1649 26.3436 21.0739 26.5549 20.9168 26.712C20.7597 26.8691 20.5484 26.9601 20.3263 26.9663Z" fill="#9898FF"/>
<path d="M3.73513 5.19739H5.63238C5.80404 5.19739 5.96866 5.12919 6.09004 5.00781C6.21143 4.88643 6.27962 4.7218 6.27962 4.55015C6.27962 4.37849 6.21143 4.21386 6.09004 4.09248C5.96866 3.9711 5.80404 3.90291 5.63238 3.90291H3.73513C3.56466 3.90668 3.40221 3.97609 3.28164 4.09666C3.16107 4.21723 3.09167 4.37967 3.08789 4.55015C3.09943 4.718 3.17132 4.87601 3.29029 4.99498C3.40927 5.11395 3.56727 5.18585 3.73513 5.19739Z" fill="#9898FF"/>
<path d="M8.12267 5.19739H9.96557C10.1372 5.19739 10.3019 5.12919 10.4232 5.00781C10.5446 4.88643 10.6128 4.7218 10.6128 4.55015C10.6128 4.37849 10.5446 4.21386 10.4232 4.09248C10.3019 3.9711 10.1372 3.90291 9.96557 3.90291H8.07326C7.9024 3.90546 7.73925 3.97447 7.61842 4.0953C7.49759 4.21613 7.42858 4.37928 7.42603 4.55015C7.44781 4.7226 7.52951 4.88191 7.65686 5.00023C7.7842 5.11854 7.94908 5.18833 8.12267 5.19739Z" fill="#9898FF"/>
<path d="M12.4556 5.19739H14.3479C14.5196 5.19739 14.6842 5.12919 14.8056 5.00781C14.9269 4.88643 14.9951 4.7218 14.9951 4.55015C14.9951 4.37849 14.9269 4.21386 14.8056 4.09248C14.6842 3.9711 14.5196 3.90291 14.3479 3.90291H12.4556C12.2847 3.90546 12.1216 3.97447 12.0007 4.0953C11.8799 4.21613 11.8109 4.37928 11.8083 4.55015C11.8189 4.71836 11.8904 4.87696 12.0096 4.99614C12.1288 5.11531 12.2874 5.18688 12.4556 5.19739Z" fill="#9898FF"/>
<path d="M16.838 5.19739H18.7303C18.902 5.19739 19.0666 5.12919 19.188 5.00781C19.3094 4.88643 19.3776 4.7218 19.3776 4.55015C19.3776 4.37849 19.3094 4.21386 19.188 4.09248C19.0666 3.9711 18.902 3.90291 18.7303 3.90291H16.838C16.6664 3.90291 16.5017 3.9711 16.3804 4.09248C16.259 4.21386 16.1908 4.37849 16.1908 4.55015C16.1908 4.7218 16.259 4.88643 16.3804 5.00781C16.5017 5.12919 16.6664 5.19739 16.838 5.19739Z" fill="#9898FF"/>
</svg>
