<svg width="28" height="28" viewBox="0 0 28 28" fill="none" xmlns="http://www.w3.org/2000/svg">
<g clip-path="url(#clip0_101_858)">
<path d="M27.3946 1.79811e-05H0.591517C0.441375 0.00406481 0.298 0.0635445 0.188853 0.167064C0.0797067 0.270583 0.0124621 0.410865 0 0.561038L0 27.4529C0.00173671 27.53 0.0189294 27.606 0.0505538 27.6764C0.0821782 27.7467 0.127587 27.8099 0.184076 27.8623C0.240565 27.9146 0.306978 27.955 0.379358 27.9811C0.451738 28.0071 0.528606 28.0183 0.60538 28.0139H27.4085C27.5613 28.0144 27.7087 27.9568 27.821 27.8527C27.9333 27.7487 28.0022 27.6058 28.0139 27.4529V0.607403C28.0114 0.444662 27.945 0.289485 27.829 0.175707C27.713 0.0619286 27.5568 -0.00122411 27.3946 1.79811e-05ZM23.901 1.16842V17.5307H20.4073V1.16842H23.901ZM8.18881 18.6991C8.26904 18.7012 8.34883 18.6865 8.42308 18.656C8.49734 18.6254 8.56443 18.5797 8.62008 18.5217C8.67574 18.4636 8.71873 18.3946 8.74632 18.319C8.77391 18.2434 8.78549 18.1628 8.78033 18.0825V1.16842H11.0909V18.0825C11.0916 18.2355 11.1493 18.3828 11.2528 18.4952C11.3563 18.6077 11.4981 18.6771 11.6501 18.6899H13.3738V26.8919H6.38191V18.6991H8.18881ZM14.5753 18.6991H16.2991C16.4617 18.6979 16.6173 18.6326 16.7323 18.5172C16.8473 18.4018 16.9125 18.2457 16.9137 18.0825V1.16842H19.2243V18.0825C19.2242 18.1663 19.2411 18.2492 19.274 18.3262C19.3069 18.4032 19.3551 18.4727 19.4156 18.5304C19.4761 18.5881 19.5478 18.6328 19.6261 18.6619C19.7045 18.6909 19.7879 18.7036 19.8713 18.6991H21.595V26.8919H14.5846L14.5753 18.6991ZM15.7953 1.16842V17.5307H12.3017V1.16842H15.7953ZM7.63888 1.16842V17.5307H4.1591V1.16842H7.63888ZM1.21076 1.16842H2.93448V18.0825C2.93801 18.2425 3.00292 18.3949 3.1157 18.508C3.22847 18.6212 3.38041 18.6863 3.53986 18.6899H5.26358V26.8919H1.21076V1.16842ZM26.8355 26.8919H22.7826V18.6991H24.4925C24.5736 18.6998 24.654 18.6843 24.7291 18.6535C24.8042 18.6228 24.8725 18.5775 24.9301 18.5202C24.9876 18.4628 25.0333 18.3947 25.0645 18.3195C25.0957 18.2444 25.1117 18.1639 25.1117 18.0825V1.16842H26.8355V26.8919Z" fill="#9898FF"/>
</g>
<defs>
<clipPath id="clip0_101_858">
<rect width="28" height="28" fill="white"/>
</clipPath>
</defs>
</svg>
