<svg width="25" height="24" viewBox="0 0 25 24" fill="none" xmlns="http://www.w3.org/2000/svg">
<path d="M12.75 12.25C9.58 12.25 7 9.67 7 6.5C7 3.33 9.58 0.75 12.75 0.75C15.92 0.75 18.5 3.33 18.5 6.5C18.5 9.67 15.92 12.25 12.75 12.25ZM12.75 2.25C10.41 2.25 8.5 4.16 8.5 6.5C8.5 8.84 10.41 10.75 12.75 10.75C15.09 10.75 17 8.84 17 6.5C17 4.16 15.09 2.25 12.75 2.25Z" fill="white"/>
<path d="M21.3401 22.25C20.9301 22.25 20.5901 21.91 20.5901 21.5C20.5901 18.05 17.0702 15.25 12.7502 15.25C8.43015 15.25 4.91016 18.05 4.91016 21.5C4.91016 21.91 4.57016 22.25 4.16016 22.25C3.75016 22.25 3.41016 21.91 3.41016 21.5C3.41016 17.23 7.60015 13.75 12.7502 13.75C17.9002 13.75 22.0901 17.23 22.0901 21.5C22.0901 21.91 21.7501 22.25 21.3401 22.25Z" fill="white"/>
</svg>
