<svg xmlns="http://www.w3.org/2000/svg" xmlns:xlink="http://www.w3.org/1999/xlink" version="1.1" x="0px" y="0px" viewBox="0 0 100 125" enable-background="new 0 0 100 100" xml:space="preserve"><g>
    <path fill="#ffffff" d="M26.136,27.39h10.229c1.254,0,2.271-1.017,2.271-2.274c0-1.254-1.017-2.271-2.271-2.271h-4.741l6.348-6.348   c0.65-0.652,0.845-1.628,0.493-2.478c-0.35-0.849-1.18-1.403-2.1-1.403h-9.09c-1.257,0-2.274,1.017-2.274,2.274   s1.017,2.271,2.274,2.271h3.603l-6.348,6.348c-0.65,0.652-0.845,1.628-0.493,2.478C24.386,26.838,25.216,27.39,26.136,27.39z"/><path fill="#ffffff" d="M43.181,21.707h10.228c1.257,0,2.271-1.015,2.271-2.271s-1.015-2.274-2.271-2.274h-4.74l6.348-6.348   c0.649-0.649,0.845-1.626,0.492-2.475c-0.35-0.852-1.18-1.403-2.1-1.403h-9.09c-1.257,0-2.273,1.017-2.273,2.271   c0,1.257,1.017,2.273,2.273,2.273h3.603l-6.348,6.348c-0.649,0.65-0.845,1.626-0.492,2.478   C41.434,21.154,42.264,21.707,43.181,21.707z"/><path fill="#ffffff" d="M98.058,64.955c0.726-12.247-8.961-15.529-14.901-17.54c-0.577-0.197-1.136-0.386-1.664-0.575l-1.193-0.433   c-5.536-2.015-18.508-6.738-29.259-6.738c-4.838,0-8.78,0.961-11.716,2.855c-1.327,0.853-2.397,1.883-3.268,3.038   c-1.497-2.522-4.008-4.793-7.288-6.307c-2.322-1.072-4.802-1.639-7.173-1.639c-4.437,0-7.986,1.947-9.494,5.21   c-0.521,1.127-0.743,2.318-0.732,3.526c-1.673-0.329-3.187-0.516-4.422-0.516C0.501,45.836,0,49.829,0,51.057   c0,0.123,0.142,8.43,7.806,13.833H6.819c-1.257,0-2.273,1.017-2.273,2.271v29.545c0,1.257,1.017,2.274,2.273,2.274h90.91   c1.255,0,2.271-1.018,2.271-2.274V67.161C100,66.023,99.15,65.123,98.058,64.955z M38.334,51.26   c0.437-2.091,1.566-3.698,3.454-4.914c2.191-1.414,5.303-2.132,9.251-2.132c9.95,0,22.394,4.531,27.707,6.467l1.214,0.439   c0.55,0.197,1.134,0.395,1.737,0.599c6.12,2.074,12.438,4.212,11.808,13.171H41.825C40.116,61.951,37.364,55.905,38.334,51.26z    M16.228,44.732c0.745-1.609,2.751-2.571,5.367-2.571c1.717,0,3.541,0.422,5.269,1.221c4.476,2.066,7.165,6.174,5.872,8.968   c-0.743,1.609-2.749,2.57-5.364,2.57c-1.72,0-3.542-0.422-5.27-1.221C17.627,51.634,14.937,47.526,16.228,44.732z M4.571,50.853   c0.004-0.004,0.435-0.472,2.375-0.472c1.711,0,3.696,0.327,5.792,0.85c1.471,2.637,4.055,5.025,7.46,6.596   c2.323,1.072,4.802,1.64,7.174,1.64c1.144,0,2.227-0.136,3.233-0.385c2.605,1.7,4.303,3.242,4.335,4.161   c-0.009,0.011-0.803,1.06-5.583,1.459c-1.503,0.125-2.966,0.188-4.346,0.188C4.951,64.888,4.552,51.606,4.571,50.853z    M95.455,94.435H9.09v-6.818h86.365V94.435z M95.455,83.07H9.09V69.435h31.467h54.898V83.07z"/></g></svg>