<svg width="25" height="25" viewBox="0 0 25 25" fill="none" xmlns="http://www.w3.org/2000/svg">
<path fill-rule="evenodd" clip-rule="evenodd" d="M11.7188 2.34375C11.0971 2.34375 10.501 2.59068 10.0615 3.03022C9.62193 3.46976 9.375 4.0659 9.375 4.6875V14.3555H8.59375L9.07452 14.9713C8.36927 15.5219 7.85349 16.2789 7.59914 17.1367C7.3448 17.9945 7.36458 18.9104 7.65573 19.7564C7.94688 20.6024 8.49487 21.3365 9.22324 21.8561C9.9516 22.3758 10.824 22.6551 11.7188 22.6551C12.6135 22.6551 13.4859 22.3758 14.2143 21.8561C14.9426 21.3365 15.4906 20.6024 15.7818 19.7564C16.0729 18.9104 16.0927 17.9945 15.8384 17.1367C15.584 16.2789 15.0682 15.5219 14.363 14.9713C14.1733 14.8232 14.0625 14.5961 14.0625 14.3555V4.6875C14.0625 4.0659 13.8156 3.46976 13.376 3.03022C12.9365 2.59068 12.3404 2.34375 11.7188 2.34375ZM7.8125 13.9909V4.6875C7.8125 3.6515 8.22405 2.65793 8.95661 1.92536C9.68918 1.1928 10.6827 0.78125 11.7188 0.78125C12.7548 0.78125 13.7483 1.1928 14.4809 1.92536C15.2134 2.65793 15.625 3.6515 15.625 4.6875V13.9909C16.433 14.7136 17.0268 15.6483 17.3364 16.6926C17.6832 17.8623 17.6563 19.1112 17.2592 20.2648C16.8622 21.4185 16.115 22.4195 15.1217 23.1281C14.1285 23.8367 12.9388 24.2176 11.7188 24.2176C10.4987 24.2176 9.30901 23.8367 8.31577 23.1281C7.32254 22.4195 6.57529 21.4185 6.17827 20.2648C5.78125 19.1112 5.75427 17.8623 6.1011 16.6926C6.41073 15.6483 7.00447 14.7136 7.8125 13.9909Z" fill="#9898FF"/>
<path fill-rule="evenodd" clip-rule="evenodd" d="M11.7188 17.1875C11.0715 17.1875 10.5469 17.7122 10.5469 18.3594C10.5469 19.0066 11.0715 19.5312 11.7188 19.5312C12.366 19.5312 12.8906 19.0066 12.8906 18.3594C12.8906 17.7122 12.366 17.1875 11.7188 17.1875ZM8.98438 18.3594C8.98438 16.8492 10.2086 15.625 11.7188 15.625C13.2289 15.625 14.4531 16.8492 14.4531 18.3594C14.4531 19.8695 13.2289 21.0938 11.7188 21.0938C10.2086 21.0938 8.98438 19.8695 8.98438 18.3594Z" fill="#9898FF"/>
<path fill-rule="evenodd" clip-rule="evenodd" d="M11.7188 7.8125C12.1502 7.8125 12.5 8.16228 12.5 8.59375V16.4062C12.5 16.8377 12.1502 17.1875 11.7188 17.1875C11.2873 17.1875 10.9375 16.8377 10.9375 16.4062V8.59375C10.9375 8.16228 11.2873 7.8125 11.7188 7.8125Z" fill="#9898FF"/>
</svg>
